<?xml version="1.0" encoding="UTF-8" standalone="no"?>
<!DOCTYPE svg PUBLIC "-//W3C//DTD SVG 1.1//EN" "http://www.w3.org/Graphics/SVG/1.1/DTD/svg11.dtd">
<svg width="100%" height="100%" viewBox="0 0 1080 1080" version="1.1" xmlns="http://www.w3.org/2000/svg" xmlns:xlink="http://www.w3.org/1999/xlink" xml:space="preserve" xmlns:serif="http://www.serif.com/" style="fill-rule:evenodd;clip-rule:evenodd;stroke-linejoin:round;stroke-miterlimit:2;">
    <rect x="0" y="0" width="1080" height="1080" style="fill:rgb(10,11,15);"/>
    <g transform="matrix(1.509615,0,0,1.479753,-865.451923,-218.373528)">
        <path d="M1243,332.573L1243,591.72C1243,663.233 1186.089,721.293 1115.99,721.293L827.635,721.293L742.539,822L746.01,721.293L746.01,721.293C675.911,721.293 619,663.233 619,591.72L619,332.573C619,261.06 675.911,203 746.01,203L1115.99,203C1186.089,203 1243,261.06 1243,332.573Z" style="fill:rgb(232,162,54);"/>
    </g>
    <g transform="matrix(1.043801,0,0,1.043801,2.350913,-3.535936)">
        <path d="M446.875,651.235L260.25,412.122L260.25,686.95L157.875,686.95L157.875,228.05L229.375,228.05L446.875,506.722L446.875,228.05L630.825,228.05C665.492,228.05 697.504,233.629 726.862,244.788C756.221,255.946 781.787,271.763 803.562,292.238C825.337,312.712 842.237,336.925 854.263,364.875C866.288,392.825 872.3,423.7 872.3,457.5C872.3,491.083 866.288,521.904 854.263,549.963C842.237,578.021 825.392,602.288 803.725,622.763C782.058,643.238 756.6,659.054 727.35,670.213C698.1,681.371 666.358,686.95 632.125,686.95L473.663,686.95L446.875,651.235ZM549.5,597.575L629.85,597.575C657.583,597.575 681.796,591.996 702.487,580.838C723.179,569.679 739.213,553.538 750.588,532.413C761.963,511.288 767.65,486.1 767.65,456.85C767.65,427.817 761.854,402.9 750.263,382.1C738.671,361.3 722.583,345.321 702,334.163C681.417,323.004 657.367,317.425 629.85,317.425L549.5,317.425L549.5,597.575Z"/>
    </g>
</svg>
